<svg xmlns="http://www.w3.org/2000/svg" viewBox="0 0 32 32">
  <g fill="none" stroke="rgb(76, 175, 80)" stroke-width="2" stroke-linecap="round" stroke-linejoin="round">
    <!-- Piggy Bank Body -->
    <path d="M4 16.5C4 11 8 7 14 7c6.5 0 10 4 10 9.5S20.5 26 14 26C8 26 4 22 4 16.5z" fill="rgb(232, 245, 233)"/>
    <!-- Coin Slot -->
    <line x1="14" y1="12" x2="14" y2="14"/>
    <!-- Ear -->
    <circle cx="22" cy="12" r="2"/>
    <!-- Snout -->
    <path d="M11 18.5a2.5 2.5 0 1 0 5 0 2.5 2.5 0 1 0-5 0"/>
    <!-- Tail -->
    <path d="M4 18.5C3 17.5 3 16 4 15"/>
    <!-- Dollar Sign -->
    <path d="M14 9v2m0 6v2M15.5 11h-2.25c-1 0-1.75.5-1.75 1.5s.75 1.5 2.5 1.5 2.5.5 2.5 1.5-.75 1.5-1.75 1.5h-2.25"/>
  </g>
</svg>